# xmcd
#
# Track frame offsets:
#	206
#	13243
#	26587
#	39529
#	55685
#	63557
#	79900
#	90314
#	107149
#	119376
#	134864
#	151505
#
# Disc length: 2150 seconds
#
# Revision: 0
# Processed by: cddbd v1.5.2PL0 Copyright (c) Steve Scherf et al.
# Submitted via: EasyCDDAExtractor 2010.6.0.0
#
DISCID=9908640c
DTITLE=The Sight-seers - Fun-seeking
DYEAR=1900
DGENRE=
TTITLE0=Gimmie Five!
TTITLE1=Away (Gone For Good)
TTITLE2=Taken For Granted
TTITLE3=Hermit Of The South Pole
TTITLE4=Stronger Now
TTITLE5=Recline
TTITLE6=Crick In My Neck
TTITLE7=The Blood River
TTITLE8=Fillin' Station Blues
TTITLE9=Horny Toad
TTITLE10=Continuum
TTITLE11=Draggin' The Main
EXTD=
EXTT0=
EXTT1=
EXTT2=
EXTT3=
EXTT4=
EXTT5=
EXTT6=
EXTT7=
EXTT8=
EXTT9=
EXTT10=
EXTT11=
PLAYORDER=
